<svg id="chocolate" xmlns="http://www.w3.org/2000/svg" width="436.938" height="512" viewBox="0 0 436.938 512">
  <path id="Path_1" data-name="Path 1" d="M86.359,161.223l-70,70a30.27,30.27,0,0,0,0,42.8L237.98,495.637a30.27,30.27,0,0,0,42.8,0L420.574,355.844a30.263,30.263,0,0,0,0-42.8L279.027,171.5a18.983,18.983,0,0,0-20.34-4.262c-67.09,26.25-113.6,15.691-148.219-8.3A18.918,18.918,0,0,0,86.359,161.223Zm0,0" fill="#d2996f"/>
  <g id="Group_1" data-name="Group 1">
    <path id="Path_2" data-name="Path 2" d="M104.512,156.219a19.034,19.034,0,0,0-18.152,5l-70,70a30.27,30.27,0,0,0,0,42.8l94.609,94.605C86.516,305.047,78.594,217.887,104.512,156.219Zm0,0" fill="#c47b46"/>
    <path id="Path_3" data-name="Path 3" d="M142.9,264.586l-35.031,35.031a16.808,16.808,0,0,1-23.762,0L49.074,264.586a16.808,16.808,0,0,1,0-23.762l35.031-35.031a16.8,16.8,0,0,1,23.762,0L142.9,240.824A16.8,16.8,0,0,1,142.9,264.586Zm0,0" fill="#b58863"/>
    <path id="Path_4" data-name="Path 4" d="M224.555,346.238,189.52,381.27a16.8,16.8,0,0,1-23.758,0L130.73,346.238a16.8,16.8,0,0,1,0-23.758l35.031-35.031a16.8,16.8,0,0,1,23.758,0l35.035,35.031A16.8,16.8,0,0,1,224.555,346.238Zm0,0" fill="#f0d9b5"/>
    <path id="Path_5" data-name="Path 5" d="M306.207,264.586l-35.031,35.031a16.8,16.8,0,0,1-23.758,0l-35.031-35.031a16.8,16.8,0,0,1,0-23.762l35.031-35.031a16.8,16.8,0,0,1,23.758,0l35.031,35.031A16.8,16.8,0,0,1,306.207,264.586Zm0,0" fill="#b58863"/>
    <path id="Path_6" data-name="Path 6" d="M306.207,427.895l-35.031,35.031a16.8,16.8,0,0,1-23.758,0l-35.031-35.031a16.8,16.8,0,0,1,0-23.758L247.418,369.1a16.8,16.8,0,0,1,23.758,0l35.031,35.035A16.8,16.8,0,0,1,306.207,427.895Zm0,0" fill="#b58863"/>
    <path id="Path_7" data-name="Path 7" d="M387.863,346.238,352.832,381.27a16.8,16.8,0,0,1-23.762,0l-35.031-35.031a16.8,16.8,0,0,1,0-23.758l35.031-35.031a16.8,16.8,0,0,1,23.762,0l35.031,35.031A16.8,16.8,0,0,1,387.863,346.238Zm0,0" fill="#f0d9b5"/>
    <path id="Path_8" data-name="Path 8" d="M126.047,168.324a16.765,16.765,0,0,0,4.684,14.605l35.031,35.031a16.8,16.8,0,0,0,23.758,0l35.035-35.031a16.733,16.733,0,0,0,3.809-5.906C185.863,187.645,152.742,182.082,126.047,168.324Zm0,0" fill="#f0d9b5"/>
  </g>
  <path id="Path_9" data-name="Path 9" d="M165.98,37.766v68.684A11.812,11.812,0,0,0,179.766,118.1c40.855-6.937,80.793-30.969,109.867-93.773A11.819,11.819,0,0,0,278.945,7.5h-82.7A30.266,30.266,0,0,0,165.98,37.766Zm0,0" fill="#d2996f"/>
  <path id="Path_10" data-name="Path 10" d="M195.9,54.1v49.543a16.712,16.712,0,0,0,3.16,9.785c28.609-9.148,55.957-28.633,78.5-66.2a16.793,16.793,0,0,0-15.32-9.934H212.7A16.8,16.8,0,0,0,195.9,54.1Zm0,0" fill="#f0d9b5"/>
  <path id="Path_11" data-name="Path 11" d="M280.813,130.758v-20.3a7.547,7.547,0,0,1,10.9-6.762l18.734,9.281a7.545,7.545,0,0,1,.477,13.266l-18.734,11.023A7.55,7.55,0,0,1,280.813,130.758Zm0,0" fill="#d2996f"/>
  <path id="Path_12" data-name="Path 12" d="M321.309,54.387l7.051,18.184a8.2,8.2,0,0,0,13.824,2.414l14.734-16.926a8.2,8.2,0,0,0-5.711-13.566l-21.785-1.254A8.2,8.2,0,0,0,321.309,54.387Zm0,0" fill="#d2996f"/>
  <path id="Path_13" data-name="Path 13" d="M165.336,121.207a19.276,19.276,0,0,0,15.684,4.285,148.443,148.443,0,0,0,20.2-4.887c.078-.02.148-.047.223-.07,40.934-13.082,72.145-43.7,95-93.059A19.32,19.32,0,0,0,278.941,0h-82.7A37.807,37.807,0,0,0,158.48,37.766V64.324a7.5,7.5,0,0,0,15,0V37.766A22.788,22.788,0,0,1,196.242,15h82.7a4.16,4.16,0,0,1,3.609,1.973,4.321,4.321,0,0,1,.273,4.2Q279.666,28,276.273,34.3a24.224,24.224,0,0,0-14.027-4.5H212.7a24.33,24.33,0,0,0-24.3,24.3v49.543a24.567,24.567,0,0,0,.5,4.859c-3.4.855-6.859,1.6-10.4,2.2a4.307,4.307,0,0,1-5.027-4.25V99.219a7.5,7.5,0,0,0-15,0v7.234A19.277,19.277,0,0,0,165.336,121.207ZM203.4,54.1a9.311,9.311,0,0,1,9.3-9.3h49.543a9.283,9.283,0,0,1,6.4,2.594c-17.551,27.738-39.133,46.445-65.234,56.523,0-.094-.008-.184-.008-.273Zm110.371,52.152-18.738-9.281a15.05,15.05,0,0,0-21.723,13.484v20.3a15.015,15.015,0,0,0,22.676,12.969l18.734-11.02a15.046,15.046,0,0,0-.949-26.453Zm-6.652,13.523-18.8,11.031a.286.286,0,0,1,0-.051l.07-20.344,18.754,9.27C307.145,119.707,307.145,119.766,307.121,119.777Zm7.191-62.68,7.055,18.184A15.585,15.585,0,0,0,333.3,85.066a16.066,16.066,0,0,0,2.754.242,15.56,15.56,0,0,0,11.785-5.4l14.734-16.93a15.7,15.7,0,0,0-10.937-25.973l-21.789-1.254A15.7,15.7,0,0,0,314.313,57.1Zm14.074-6.086a.632.632,0,0,1,.6-.285l21.789,1.254a.615.615,0,0,1,.6.426.608.608,0,0,1-.117.727l-14.734,16.93a.626.626,0,0,1-.645.23.633.633,0,0,1-.531-.437L328.3,51.676A.628.628,0,0,1,328.387,51.012Zm-46.77,283.348a24.15,24.15,0,0,0,7.121,17.184l35.031,35.031a24.3,24.3,0,0,0,34.363,0l35.031-35.031a24.293,24.293,0,0,0,0-34.367l-35.031-35.031a24.325,24.325,0,0,0-34.363,0l-35.035,35.031A24.156,24.156,0,0,0,281.617,334.359Zm17.727-6.578,35.031-35.031a9.313,9.313,0,0,1,13.152,0l35.031,35.031a9.294,9.294,0,0,1,0,13.152l-35.031,35.035a9.3,9.3,0,0,1-13.152,0l-35.031-35.031a9.294,9.294,0,0,1,0-13.152ZM160.457,386.574a24.3,24.3,0,0,0,34.367,0l35.031-35.031a24.3,24.3,0,0,0,0-34.367l-35.031-35.031a24.33,24.33,0,0,0-34.367,0l-35.031,35.031a24.321,24.321,0,0,0,0,34.363Zm-24.426-58.793,35.035-35.031a9.313,9.313,0,0,1,13.152,0l35.031,35.031a9.3,9.3,0,0,1,0,13.152l-35.031,35.035a9.3,9.3,0,0,1-13.152,0l-35.031-35.031a9.3,9.3,0,0,1,0-13.152ZM242.113,468.23a24.331,24.331,0,0,0,34.367,0L311.512,433.2a24.3,24.3,0,0,0,0-34.367L276.48,363.8a24.3,24.3,0,0,0-34.367,0l-35.031,35.031a24.3,24.3,0,0,0,0,34.367Zm-24.426-58.793,35.031-35.031a9.3,9.3,0,0,1,13.152,0l35.035,35.031a9.3,9.3,0,0,1,0,13.152l-35.035,35.031a9.309,9.309,0,0,1-13.152,0L217.688,422.59a9.3,9.3,0,0,1,0-13.152Zm208.191-101.7L284.332,166.2a26.492,26.492,0,0,0-28.379-5.941c-56.09,21.949-102.281,19.5-141.211-7.477a26.378,26.378,0,0,0-33.687,3.145L11.063,225.914a37.76,37.76,0,0,0,0,53.406L232.68,500.938a37.765,37.765,0,0,0,53.406,0l20.008-20.012a7.5,7.5,0,0,0-10.605-10.605l-20.012,20.012a22.765,22.765,0,0,1-32.191,0L21.668,268.715a22.761,22.761,0,0,1,0-32.191l70-70a11.385,11.385,0,0,1,14.531-1.422q6,4.154,12.2,7.621a24.34,24.34,0,0,0,7.035,15.5l35.035,35.035a24.336,24.336,0,0,0,34.363,0l35.031-35.035a23.915,23.915,0,0,0,3.707-4.781,264.063,264.063,0,0,0,27.859-9.227,11.477,11.477,0,0,1,12.3,2.578L415.27,318.348a22.761,22.761,0,0,1,0,32.191l-94.824,94.828a7.5,7.5,0,0,0,10.605,10.605l94.828-94.824a37.774,37.774,0,0,0,0-53.41Zm-241.66-95.082a9.306,9.306,0,0,1-13.152,0l-29.687-29.684c20.672,7,42.9,8.867,66.918,5.605Zm92.262-12.168a24.3,24.3,0,0,0-34.367,0L207.082,235.52a24.326,24.326,0,0,0,0,34.367l35.031,35.031a24.331,24.331,0,0,0,34.367,0l35.031-35.031a24.333,24.333,0,0,0,0-34.367Zm24.426,58.793-35.035,35.031a9.313,9.313,0,0,1-13.152,0l-35.031-35.031a9.313,9.313,0,0,1,0-13.152L252.723,211.1a9.294,9.294,0,0,1,13.152,0l35.031,35.031A9.313,9.313,0,0,1,300.906,259.281ZM148.2,269.887a24.333,24.333,0,0,0,0-34.367l-35.031-35.027a24.3,24.3,0,0,0-34.367,0L43.773,235.523a24.321,24.321,0,0,0,0,34.363L78.8,304.922a24.34,24.34,0,0,0,34.367,0L148.2,269.887Zm-10.609-10.605h0l-35.035,35.031a9.313,9.313,0,0,1-13.152,0L54.379,259.281a9.313,9.313,0,0,1,0-13.152L89.41,211.1a9.294,9.294,0,0,1,13.152,0l35.031,35.031A9.306,9.306,0,0,1,137.594,259.281Zm0,0"/>
</svg>
